<svg width="35" height="35" viewBox="0 0 35 35" fill="none" xmlns="http://www.w3.org/2000/svg">
<path d="M20.8633 11.8675C20.8633 13.7214 19.3539 16.9535 17.5 16.9535C15.6461 16.9535 14.1367 13.716 14.1367 11.8566C14.1717 10.9888 14.5411 10.1682 15.1675 9.56652C15.7939 8.96489 16.6287 8.62891 17.4973 8.62891C18.3658 8.62891 19.2006 8.96489 19.827 9.56652C20.4534 10.1682 20.8228 10.9888 20.8578 11.8566L20.8633 11.8675Z" stroke="white" stroke-width="2" stroke-linecap="round" stroke-linejoin="round"/>
<path d="M10.5762 26.4142C10.5762 24.578 11.3056 22.8169 12.604 21.5186C13.9024 20.2202 15.6634 19.4907 17.4996 19.4907C19.3358 19.4907 21.0968 20.2202 22.3952 21.5186C23.6936 22.8169 24.423 24.578 24.423 26.4142" stroke="white" stroke-width="2" stroke-linecap="round" stroke-linejoin="round"/>
<path d="M29.252 14.0931C29.252 15.6626 27.9777 18.4681 26.4082 18.4681C24.8387 18.4681 23.5645 15.6407 23.5645 14.0931C23.5645 13.3381 23.8643 12.6141 24.3982 12.0803C24.932 11.5465 25.656 11.2466 26.4109 11.2466C27.1659 11.2466 27.8899 11.5465 28.4237 12.0803C28.9575 12.6141 29.2574 13.3381 29.2574 14.0931H29.252Z" stroke="white" stroke-width="2" stroke-linecap="round" stroke-linejoin="round"/>
<path d="M22.8633 21.8205C23.7332 21.162 24.7697 20.7593 25.856 20.6578C26.9423 20.5562 28.0355 20.7599 29.0124 21.2458C29.9893 21.7317 30.8112 22.4805 31.3856 23.4081C31.9601 24.3357 32.2643 25.4052 32.2641 26.4963" stroke="white" stroke-width="2" stroke-linecap="round" stroke-linejoin="round"/>
<path d="M5.74766 14.0931C5.74766 15.6626 7.02188 18.4681 8.59141 18.4681C10.1609 18.4681 11.4352 15.6407 11.4352 14.0931C11.4352 13.3381 11.1353 12.6141 10.6014 12.0803C10.0676 11.5465 9.34361 11.2466 8.58867 11.2466C7.83374 11.2466 7.10972 11.5465 6.5759 12.0803C6.04208 12.6141 5.74219 13.3381 5.74219 14.0931H5.74766Z" stroke="white" stroke-width="2" stroke-linecap="round" stroke-linejoin="round"/>
<path d="M12.1352 21.8205C11.2652 21.162 10.2288 20.7593 9.14244 20.6578C8.0561 20.5562 6.96299 20.7599 5.98608 21.2458C5.00918 21.7317 4.18726 22.4805 3.61279 23.4081C3.03832 24.3357 2.73411 25.4052 2.73438 26.4963" stroke="white" stroke-width="2" stroke-linecap="round" stroke-linejoin="round"/>
</svg>
