<svg width="35" height="35" viewBox="0 0 35 35" fill="none" xmlns="http://www.w3.org/2000/svg">
<path fill-rule="evenodd" clip-rule="evenodd" d="M6.81091 6.81311C5.53653 8.0875 5.53651 10.1566 6.81091 11.431C8.0853 12.7054 10.1544 12.7054 11.4288 11.431C12.7032 10.1566 12.7032 8.08751 11.4288 6.81311C10.1544 5.53872 8.08529 5.53873 6.81091 6.81311ZM8.35021 8.35242C8.77506 7.92757 9.46467 7.92757 9.88951 8.35242C10.3144 8.77726 10.3144 9.46687 9.88951 9.89172C9.46467 10.3166 8.77506 10.3166 8.35021 9.89172C7.92536 9.46687 7.92536 8.77727 8.35021 8.35242Z" fill="white"/>
<path fill-rule="evenodd" clip-rule="evenodd" d="M15.9467 21.3346L28.7469 34.1342C28.9602 34.3476 29.2525 34.4629 29.554 34.4526L32.7415 34.3432C33.2553 34.3258 33.6868 33.9508 33.7761 33.4447L34.4368 29.7058C34.4912 29.3967 34.4096 29.0794 34.2131 28.8345C34.0166 28.5902 33.7244 28.4422 33.4109 28.4291L31.2329 28.3371L31.222 26.2794C31.2204 25.9888 31.1028 25.7112 30.8955 25.5077C30.6876 25.3047 30.4079 25.1926 30.1173 25.1969L28.194 25.2258L28.2027 23.2704C28.2038 22.9781 28.0873 22.6973 27.8789 22.4916C27.671 22.2859 27.3885 22.1727 27.0963 22.1776L25.1675 22.2091L25.1572 20.2145C25.1555 19.9277 25.0407 19.6534 24.8383 19.4504L21.3345 15.9467C23.162 11.9325 22.4263 7.03283 19.1261 3.73264C14.8778 -0.515047 7.98087 -0.515047 3.73264 3.73264C-0.515046 7.98087 -0.515046 14.8779 3.73264 19.1261C7.03282 22.4263 11.9325 23.1621 15.9467 21.3346ZM20.1944 17.8853C19.8744 18.3185 19.5185 18.7332 19.1261 19.1261C18.7331 19.5185 18.3184 19.8744 17.8852 20.1944L29.9518 32.261L31.7859 32.1979L32.0765 30.5516L30.1042 30.4683C29.524 30.4438 29.0647 29.9676 29.062 29.3864L29.0511 27.3902L27.1169 27.419C26.8241 27.4234 26.5428 27.3102 26.3349 27.1044C26.127 26.8987 26.0105 26.6185 26.0122 26.3257L26.0209 24.3724L24.103 24.404C23.8124 24.4083 23.5316 24.2968 23.3237 24.0932C23.1158 23.8902 22.9982 23.6121 22.9966 23.321L22.9825 20.6733L20.1944 17.8853ZM5.27225 5.27226C8.6704 1.87411 14.1883 1.87411 17.5865 5.27226C20.9846 8.67041 20.9846 14.1883 17.5865 17.5865C14.1883 20.9846 8.6704 20.9846 5.27225 17.5865C1.87411 14.1883 1.87411 8.67041 5.27225 5.27226Z" fill="white"/>
</svg>
