<svg width="36" height="26" viewBox="0 0 36 26" fill="none" xmlns="http://www.w3.org/2000/svg">
<path d="M36 22C36 23.0609 35.5786 24.0783 34.8284 24.8284C34.0783 25.5786 33.0609 26 32 26H4C2.93913 26 1.92172 25.5786 1.17157 24.8284C0.421427 24.0783 0 23.0609 0 22V4C0 2.93913 0.421427 1.92172 1.17157 1.17157C1.92172 0.421427 2.93913 0 4 0H32C33.0609 0 34.0783 0.421427 34.8284 1.17157C35.5786 1.92172 36 2.93913 36 4V22Z" fill="#E8112D"/>
<path d="M18.473 6.986C18.487 5.941 19.413 5.222 19.452 3.83C20.115 4.664 19.019 6.227 19.408 7.134C19.586 6.105 20.611 5.539 20.869 4.171C21.394 5.099 20.066 6.471 20.308 7.427C20.644 6.437 21.746 6.04 22.214 4.728C22.587 5.727 21.062 6.874 21.152 7.856C21.638 6.932 22.789 6.712 23.457 5.489C23.67 6.534 21.982 7.428 21.918 8.413C22.543 7.576 23.715 7.538 24.565 6.435C24.612 7.501 22.805 8.119 22.588 9.082C23.336 8.353 24.498 8.499 25.51 7.542C25.391 8.602 23.51 8.931 23.143 9.848C23.997 9.245 25.123 9.571 26.272 8.785C25.989 9.813 24.079 9.844 23.575 10.692C24.511 10.23 25.571 10.728 26.831 10.131C26.39 11.101 24.497 10.833 23.866 11.592C24.864 11.282 25.835 11.941 27.171 11.548C26.581 12.438 24.757 11.876 24.015 12.527C25.048 12.377 25.904 13.178 27.284 13C26.565 13.787 24.849 12.947 24.015 13.473C25.06 13.487 25.779 14.414 27.169 14.451C26.335 15.117 24.773 14.017 23.866 14.408C24.897 14.586 25.462 15.611 26.831 15.869C25.903 16.394 24.53 15.066 23.573 15.308C24.563 15.644 24.962 16.746 26.272 17.214C25.274 17.589 24.128 16.062 23.143 16.152C24.069 16.638 24.29 17.789 25.51 18.457C24.465 18.67 23.572 16.982 22.586 16.918C23.424 17.543 23.461 18.715 24.565 19.565C23.5 19.612 22.879 17.805 21.918 17.588C22.647 18.336 22.5 19.498 23.457 20.51C22.396 20.391 22.068 18.51 21.152 18.143C21.754 18.997 21.427 20.123 22.214 21.272C21.185 20.989 21.155 19.079 20.308 18.575C20.771 19.511 20.271 20.571 20.869 21.831C19.898 21.39 20.166 19.497 19.408 18.866C19.717 19.864 19.06 20.835 19.452 22.171C18.562 21.581 19.124 19.757 18.473 19.015C18.623 20.048 17.822 20.904 18 22.284C17.213 21.565 18.053 19.849 17.527 19.015C17.513 20.06 16.587 20.779 16.548 22.169C15.883 21.337 16.981 19.773 16.591 18.866C16.414 19.897 15.388 20.462 15.131 21.831C14.606 20.903 15.934 19.53 15.691 18.575C15.355 19.563 14.253 19.962 13.785 21.272C13.411 20.274 14.938 19.128 14.848 18.143C14.361 19.069 13.21 19.29 12.543 20.51C12.33 19.465 14.018 18.572 14.082 17.588C13.457 18.424 12.286 18.461 11.436 19.565C11.388 18.5 13.196 17.879 13.413 16.918C12.665 17.647 11.502 17.5 10.49 18.457C10.61 17.396 12.492 17.068 12.857 16.152C12.004 16.754 10.878 16.427 9.729 17.214C10.013 16.185 11.923 16.155 12.427 15.308C11.49 15.771 10.43 15.273 9.171 15.869C9.613 14.898 11.504 15.166 12.135 14.408C11.137 14.717 10.168 14.06 8.831 14.451C9.419 13.563 11.245 14.123 11.986 13.473C10.952 13.623 10.098 12.821 8.717 13C9.437 12.214 11.152 13.053 11.986 12.527C10.942 12.513 10.223 11.587 8.831 11.548C9.665 10.883 11.228 11.981 12.135 11.591C11.105 11.414 10.54 10.388 9.172 10.131C10.1 9.605 11.472 10.934 12.428 10.691C11.438 10.355 11.041 9.253 9.729 8.785C10.728 8.411 11.875 9.938 12.857 9.848C11.932 9.361 11.713 8.21 10.49 7.543C11.535 7.33 12.429 9.018 13.414 9.082C12.577 8.457 12.539 7.286 11.436 6.436C12.501 6.389 13.12 8.196 14.083 8.413C13.354 7.665 13.5 6.502 12.543 5.49C13.602 5.61 13.932 7.492 14.849 7.857C14.245 7.004 14.572 5.879 13.786 4.729C14.814 5.013 14.845 6.923 15.693 7.427C15.231 6.49 15.729 5.43 15.132 4.172C16.102 4.613 15.834 6.504 16.593 7.135C16.283 6.137 16.942 5.168 16.549 3.831C17.439 4.419 16.877 6.245 17.528 6.986C17.377 5.952 18.179 5.098 18.001 3.717C18.787 4.436 17.947 6.152 18.473 6.986Z" fill="#FFCC4D"/>
<path d="M18.001 17.906C18.6453 17.9059 19.2832 17.7788 19.8784 17.5322C20.4735 17.2855 21.0143 16.924 21.4698 16.4684C21.9252 16.0127 22.2865 15.4718 22.5329 14.8765C22.7794 14.2812 22.9061 13.6433 22.906 12.999C22.9059 12.3547 22.7788 11.7168 22.5322 11.1216C22.2855 10.5265 21.924 9.9857 21.4684 9.53023C21.0127 9.07476 20.4718 8.71349 19.8765 8.46706C19.2812 8.22064 18.6433 8.09387 17.999 8.094C16.6978 8.09426 15.4501 8.6114 14.5302 9.53164C13.6104 10.4519 13.0937 11.6998 13.094 13.001C13.0943 14.3022 13.6114 15.5499 14.5316 16.4698C15.4519 17.3896 16.6998 17.9063 18.001 17.906Z" fill="#E8112D"/>
<path d="M18 8.451C19.252 8.451 20.377 8.987 21.16 9.844C19.931 9.968 18.889 10.258 18 10.699C17.111 10.258 16.068 9.968 14.841 9.844C15.2414 9.40444 15.7292 9.05346 16.2732 8.81356C16.8173 8.57367 17.4054 8.45017 18 8.451ZM17.677 10.873C17.579 10.9276 17.4823 10.9847 17.387 11.044C16.59 10.621 15.635 10.348 14.5 10.267C14.5518 10.1938 14.6061 10.1224 14.663 10.053C15.842 10.158 16.837 10.44 17.677 10.873ZM18.326 10.873C18.425 10.928 18.521 10.985 18.615 11.044C19.413 10.621 20.367 10.348 21.502 10.267C21.4506 10.1938 21.3965 10.1224 21.34 10.053C20.16 10.158 19.166 10.44 18.326 10.873ZM14.357 10.487C14.3116 10.5606 14.2686 10.6357 14.228 10.712C15.284 10.736 16.17 10.98 16.898 11.382C16.974 11.3245 17.0514 11.2689 17.13 11.215C16.37 10.8 15.451 10.541 14.357 10.487ZM14.227 14.745C13.859 14.112 13.723 13.513 13.723 12.729C13.723 12.089 13.861 11.485 14.111 10.942C15.133 10.935 15.988 11.158 16.686 11.546C15.653 12.393 14.814 13.385 14.227 14.745ZM16.257 16.633C16.065 16.559 15.856 16.35 15.678 16.25C15.779 14.643 16.531 13.321 17.579 12.209C17.657 12.285 17.732 12.361 17.804 12.442C16.83 13.581 16.204 15.059 16.257 16.633ZM21.646 10.487C21.691 10.56 21.734 10.635 21.775 10.712C20.718 10.736 19.832 10.98 19.105 11.382C19.0288 11.3243 18.9511 11.2686 18.872 11.215C19.633 10.8 20.551 10.541 21.646 10.487Z" fill="#FFCC4D"/>
<path d="M21.775 14.746C22.142 14.113 22.279 13.513 22.279 12.729C22.279 12.089 22.14 11.485 21.89 10.942C20.869 10.935 20.013 11.158 19.315 11.546C20.35 12.393 21.19 13.386 21.775 14.746ZM18.001 12.808C18.768 14.042 18.915 15.392 18.873 16.917C18.54 16.999 18.36 17.007 18.001 17.007C17.642 17.007 17.462 16.999 17.129 16.917C17.087 15.47 17.234 14.089 18.001 12.808ZM19.74 16.633C19.931 16.559 20.146 16.412 20.324 16.313C20.223 14.706 19.47 13.321 18.422 12.21C18.3448 12.2852 18.2701 12.3629 18.198 12.443C19.174 13.581 19.793 15.059 19.74 16.633ZM17.324 11.981C17.2295 11.9029 17.1318 11.8288 17.031 11.759C15.946 12.721 15.14 13.839 14.688 15.354C14.855 15.545 14.852 15.686 15.05 15.844C15.33 14.251 16.237 13.032 17.324 11.981ZM18.679 11.981C18.77 11.906 18.873 11.827 18.972 11.759C20.057 12.721 20.86 13.859 21.313 15.375C21.145 15.566 21.121 15.687 20.921 15.845C20.642 14.251 19.766 13.032 18.679 11.981ZM18.001 11.054C18.055 11.086 18.24 11.202 18.287 11.233C18.214 11.278 18.047 11.391 18.001 11.422C17.9072 11.3567 17.8118 11.2937 17.715 11.233C17.762 11.202 17.947 11.085 18.001 11.054ZM17.46 11.411C17.387 11.466 17.276 11.551 17.234 11.587C17.339 11.656 17.48 11.763 17.525 11.798C17.58 11.751 17.688 11.655 17.749 11.611C17.6556 11.5402 17.5592 11.4735 17.46 11.411ZM18.542 11.411C18.615 11.466 18.726 11.551 18.768 11.587C18.6687 11.6541 18.5717 11.7245 18.477 11.798C18.423 11.751 18.314 11.655 18.253 11.611C18.328 11.556 18.486 11.442 18.542 11.411ZM18.001 11.81C18.048 11.85 18.187 11.973 18.224 12.01C18.1463 12.0784 18.0719 12.1505 18.001 12.226C17.9307 12.1503 17.8566 12.0782 17.779 12.01C17.815 11.973 17.955 11.851 18.001 11.81Z" fill="#FFCC4D"/>
</svg>
