<svg width="35" height="35" viewBox="0 0 35 35" fill="none" xmlns="http://www.w3.org/2000/svg">
<path d="M34.9855 9.93125C35.0027 9.61322 34.9774 9.29436 34.9104 8.98262C34.862 8.79569 34.7636 8.62451 34.6252 8.48642C34.4074 8.30447 34.1584 8.16121 33.8895 8.06318C33.4454 7.88992 32.9888 7.74847 32.5234 7.63995C31.8628 7.46482 31.1722 7.31887 30.4816 7.17293C29.4757 6.96861 28.4699 6.80807 27.479 6.64753C23.3504 6.00538 19.1768 5.56755 15.0332 5.01297C13.2016 4.76487 11.5051 4.50217 9.68857 4.18109L7.79694 3.87461C10.3041 3.68489 13.6971 3.393 17.09 3.04274C19.387 2.79463 21.5939 2.51734 23.6657 2.25464C27.3139 1.77303 30.0462 1.3352 30.1663 1.3352C30.4597 1.28914 30.7587 1.28914 31.0521 1.3352C31.1014 1.63002 31.1014 1.93064 31.0521 2.22546L31.2172 5.6989C31.2172 5.83051 31.271 5.95672 31.3667 6.04977C31.4625 6.14283 31.5923 6.19511 31.7277 6.19511C31.7953 6.19713 31.8626 6.18568 31.9254 6.16146C31.9883 6.13724 32.0454 6.10076 32.0932 6.05428C32.1411 6.00779 32.1786 5.95228 32.2035 5.89116C32.2284 5.83004 32.2402 5.76461 32.2381 5.6989C32.2381 5.6989 32.6585 1.04332 31.9979 0.532515C31.4676 0.146732 30.8119 -0.0398497 30.1513 0.00711985C30.0312 0.00711985 27.1487 0.226035 23.4705 0.620081C21.4438 0.824401 19.1768 1.0871 16.8798 1.37899C16.6546 1.37899 3.57828 2.69247 3.08285 3.43678C2.98999 3.53397 2.93838 3.6617 2.93838 3.79434C2.93838 3.92699 2.98999 4.05472 3.08285 4.15191C3.27489 4.28038 3.49669 4.36061 3.72841 4.38541C4.20883 4.48757 9.46338 5.27567 9.46338 5.27567C11.2349 5.62593 13.0065 5.91782 14.793 6.19511C18.9216 6.80807 23.0802 7.30428 27.1937 8.0048C28.1846 8.17994 29.1755 8.35507 30.1963 8.57398C30.8419 8.70533 31.4875 8.86587 32.118 9.0556C32.4794 9.13675 32.8353 9.2391 33.1839 9.36208L33.4992 9.49342V10.0188C33.4992 10.8215 33.304 25.7807 33.0038 31.7352C33.0038 32.3919 33.0038 32.9465 32.8987 33.3405H32.3432L27.8393 32.7276C24.1011 32.3335 15.2584 31.3995 8.72774 30.2903C6.5893 29.9678 4.48078 29.4798 2.42228 28.8309C2.08409 28.7021 1.75765 28.5459 1.44643 28.3639C1.36142 26.7839 1.36142 25.2007 1.44643 23.6207C1.5215 19.5197 1.71667 14.076 1.79173 11.9453L2.12202 6.53078C2.12202 6.34105 2.39225 3.93299 2.37724 3.9038C2.36223 3.87461 1.6416 3.42219 1.47646 4.09353C1.47646 4.18109 1.20622 6.28268 1.1762 6.45781L0.680769 11.8723C0.545652 14.3241 0.155314 21.0959 0.0502227 25.2261C-0.0392734 26.4228 -0.00910604 27.6252 0.140301 28.8163C0.536986 29.4364 1.15836 29.8894 1.88181 30.086C4.04034 30.7981 6.25443 31.3399 8.50255 31.706C15.0632 32.9173 23.9359 33.9243 27.6892 34.3475C28.7251 34.4643 29.791 34.6832 30.8419 34.8292C31.3373 34.9021 31.8027 34.9459 32.3432 34.9751C32.803 35.0083 33.2646 35.0083 33.7244 34.9751C33.9717 34.9513 34.204 34.8487 34.385 34.6832C34.5728 34.3925 34.686 34.0621 34.7153 33.72C34.7903 32.9465 34.8654 31.3411 34.9254 29.3417C35.0005 22.4678 35.0155 10.6318 34.9855 9.93125Z" fill="white"/>
<path d="M9.02769 15.0688C8.98186 14.9816 8.90903 14.9107 8.8195 14.866C8.72997 14.8213 8.62826 14.8051 8.52872 14.8196C8.42919 14.8341 8.33685 14.8786 8.26476 14.9469C8.19266 15.0152 8.14444 15.1038 8.12691 15.2001C8.12691 15.4482 7.93174 16.1195 7.91673 16.1779L7.57143 17.9438C7.40629 18.7319 7.27117 19.5054 7.15107 20.2935C7.15107 20.8189 7.00094 21.3589 6.97091 21.8989C6.91855 22.3206 6.91855 22.7469 6.97091 23.1686C7.029 23.5393 7.20792 23.882 7.48135 24.1464C7.91101 24.5649 8.42112 24.8971 8.98266 25.1242C9.7283 25.4312 10.496 25.6849 11.2796 25.8831C12.3761 26.2008 13.4885 26.4638 14.6125 26.6712C16.279 26.9631 17.9604 27.1674 19.6269 27.3864C20.733 27.5793 21.8684 27.5445 22.9598 27.2842C23.7842 27.064 24.5085 26.5808 25.0165 25.9123C25.4026 25.4052 25.6551 24.814 25.7522 24.1902C25.8631 23.4314 25.9133 22.6653 25.9023 21.8989C25.9023 21.1692 26.1726 20.0746 26.1425 19.126C26.1408 18.6222 26.0282 18.1246 25.8122 17.6665C25.4207 17.0117 24.8197 16.4992 24.1008 16.2071C23.6203 15.9856 23.1171 15.8144 22.5995 15.6963C22.5995 15.4482 22.7346 15.2001 22.8096 14.9374C22.8847 14.6747 22.8096 14.5871 22.8847 14.3974C22.8997 14.2226 22.8997 14.0469 22.8847 13.872C22.7646 12.1791 22.6895 12.1499 22.4343 12.0769C21.8638 11.9164 21.3083 13.405 21.2333 13.6823C21.1837 13.8741 21.1486 14.0693 21.1282 14.2661V14.8498C21.1282 15.0396 21.1282 15.2293 21.2183 15.4044C19.8047 15.1513 18.3752 14.9904 16.9396 14.9228C15.6634 14.9228 14.4024 14.8352 13.1262 14.8061V14.6017C13.1262 14.339 13.3214 13.945 13.4115 13.4488C13.4669 13.1897 13.4921 12.9253 13.4866 12.6607C13.4866 12.6607 13.4115 11.2013 13.0662 10.8802C12.7209 10.5591 12.6308 10.8802 12.3306 11.2159C12.055 11.6191 11.8613 12.0699 11.7601 12.5439C11.7163 12.8294 11.7163 13.1196 11.7601 13.405C11.8042 13.8404 11.9103 14.2677 12.0753 14.6747H10.3939C10.2716 14.695 10.1607 14.7567 10.0808 14.8488C10.0008 14.941 9.95692 15.0577 9.95692 15.1782C9.95692 15.2988 10.0008 15.4154 10.0808 15.5076C10.1607 15.5997 10.2716 15.6614 10.3939 15.6817C12.5708 15.8131 14.7326 15.8568 16.8945 16.0466C18.3089 16.1689 19.7133 16.3835 21.0982 16.6887C21.9219 16.8421 22.7234 17.092 23.4852 17.433C23.8933 17.5951 24.2359 17.882 24.4611 18.2503C24.597 18.6194 24.6383 19.0152 24.5812 19.4033C24.5812 20.2205 24.326 21.1108 24.2659 21.7092C23.9556 21.5517 23.61 21.4715 23.26 21.4757C22.3743 21.4757 21.3233 21.9865 20.4076 21.8259C19.7887 21.6471 19.2561 21.2588 18.9063 20.7313C18.5252 20.2654 18.0748 19.8571 17.5701 19.52C17.1965 19.2643 16.7629 19.1037 16.309 19.053C15.8721 18.9926 15.4271 19.0224 15.0029 19.1406C14.4648 19.329 13.9588 19.5947 13.5016 19.9287C13.0417 20.3316 12.4648 20.5865 11.8501 20.6584C11.4165 20.6547 10.986 20.5857 10.574 20.4541C10.1813 20.3375 9.82506 20.1267 9.53814 19.8411C9.16281 19.3887 9.13279 18.6444 8.56229 18.7757C8.56229 18.5276 8.56229 18.2795 8.66738 18.0314C8.88005 17.0566 9.00066 16.0649 9.02769 15.0688ZM8.63736 20.5562C9.00118 21.0195 9.47511 21.39 10.0186 21.6362C10.5358 21.8735 11.0879 22.0311 11.655 22.1032C12.0733 22.1445 12.4958 22.1099 12.9011 22.0011C13.4299 21.8302 13.9344 21.5948 14.4024 21.3005C14.8637 20.9629 15.4319 20.7925 16.0087 20.8189C16.6128 20.9522 17.1464 21.2946 17.51 21.7821C17.9143 22.2232 18.385 22.6021 18.9063 22.9059C19.2867 23.1248 19.7122 23.2594 20.1523 23.2999C21.1953 23.1794 22.2252 22.9694 23.23 22.6724C23.3698 22.6521 23.5125 22.6626 23.6476 22.703C23.7827 22.7434 23.9068 22.8127 24.0107 22.9059C24.0439 22.943 24.0849 22.9728 24.1308 22.9935C24.1129 23.2878 24.0728 23.5805 24.0107 23.8691C23.9643 24.2325 23.8249 24.5787 23.6053 24.8761C23.2381 25.3434 22.701 25.6567 22.104 25.7518C21.3626 25.8604 20.6085 25.8604 19.8671 25.7518C18.2006 25.5621 16.5642 25.4015 14.9278 25.1534C13.8469 24.9929 12.7809 24.8032 11.715 24.5405C10.9821 24.3857 10.26 24.1858 9.55315 23.9421C9.15032 23.7954 8.77879 23.5777 8.4572 23.2999C8.38984 23.2404 8.33527 23.1685 8.29662 23.0883C8.25798 23.0082 8.23602 22.9214 8.23201 22.8329C8.21699 22.551 8.21699 22.2684 8.23201 21.9865C8.23201 21.4805 8.26203 20.994 8.32208 20.527V20.1184C8.42058 20.2687 8.52577 20.4148 8.63736 20.5562Z" fill="white"/>
<path d="M17.2243 14.8057C17.2912 14.8098 17.3582 14.8003 17.421 14.7777C17.4838 14.7552 17.5411 14.7201 17.5892 14.6747C17.6373 14.6294 17.675 14.5748 17.7001 14.5144C17.7252 14.454 17.737 14.3892 17.7347 14.3241C17.8756 14.0223 17.991 13.71 18.08 13.3901C18.1014 13.2595 18.1014 13.1265 18.08 12.996C18.0953 12.8602 18.0953 12.7232 18.08 12.5874C18.0105 12.2818 17.9253 11.9798 17.8248 11.6825C17.8053 11.5783 17.7488 11.484 17.6651 11.4161C17.5815 11.3482 17.4759 11.311 17.3669 11.311C17.2579 11.311 17.1524 11.3482 17.0687 11.4161C16.985 11.484 16.9285 11.5783 16.909 11.6825C16.74 11.9808 16.5993 12.2935 16.4887 12.6166C16.4595 12.7513 16.4595 12.8905 16.4887 13.0252C16.4657 13.1605 16.4657 13.2985 16.4887 13.4338C16.5521 13.7648 16.6374 14.0914 16.7439 14.4117C16.7696 14.5189 16.8302 14.6152 16.9168 14.6862C17.0034 14.7572 17.1112 14.7991 17.2243 14.8057Z" fill="white"/>
</svg>
