<svg width="35" height="35" viewBox="0 0 35 35" fill="none" xmlns="http://www.w3.org/2000/svg">
<path d="M22.1667 33.8333H21C21 34.2753 21.2497 34.6792 21.6449 34.8768C22.0402 35.0744 22.5131 35.0317 22.8667 34.7667L22.1667 33.8333ZM26.8333 30.3333L27.5333 29.4C27.1185 29.089 26.5482 29.089 26.1333 29.4L26.8333 30.3333ZM31.5 33.8333L30.8 34.7667C31.1535 35.0317 31.6265 35.0744 32.0217 34.8768C32.417 34.6792 32.6667 34.2753 32.6667 33.8333H31.5ZM26.8333 25.6667C23.6117 25.6667 21 23.055 21 19.8333H18.6667C18.6667 24.3437 22.323 28 26.8333 28V25.6667ZM32.6667 19.8333C32.6667 23.055 30.055 25.6667 26.8333 25.6667V28C31.3437 28 35 24.3437 35 19.8333H32.6667ZM26.8333 14C30.055 14 32.6667 16.6117 32.6667 19.8333H35C35 15.323 31.3437 11.6667 26.8333 11.6667V14ZM26.8333 11.6667C22.323 11.6667 18.6667 15.323 18.6667 19.8333H21C21 16.6117 23.6117 14 26.8333 14V11.6667ZM21 24.5V33.8333H23.3333V24.5H21ZM22.8667 34.7667L27.5333 31.2667L26.1333 29.4L21.4667 32.9L22.8667 34.7667ZM26.1333 31.2667L30.8 34.7667L32.2 32.9L27.5333 29.4L26.1333 31.2667ZM32.6667 33.8333V24.5H30.3333V33.8333H32.6667ZM35 11.6667V3.5H32.6667V11.6667H35ZM31.5 0H3.5V2.33333H31.5V0ZM0 3.5V31.5H2.33333V3.5H0ZM3.5 35H18.6667V32.6667H3.5V35ZM0 31.5C0 33.4329 1.567 35 3.5 35V32.6667C2.85567 32.6667 2.33333 32.1442 2.33333 31.5H0ZM3.5 0C1.56701 0 0 1.567 0 3.5H2.33333C2.33333 2.85567 2.85567 2.33333 3.5 2.33333V0ZM35 3.5C35 1.567 33.4329 0 31.5 0V2.33333C32.1442 2.33333 32.6667 2.85567 32.6667 3.5H35ZM7 11.6667H18.6667V9.33333H7V11.6667ZM7 18.6667H14V16.3333H7V18.6667Z" fill="white"/>
</svg>
