<svg width="30" height="30" viewBox="0 0 30 30" fill="none" xmlns="http://www.w3.org/2000/svg">
<path fill-rule="evenodd" clip-rule="evenodd" d="M2.5 6.25C2.5 4.17893 4.17893 2.5 6.25 2.5H10.3491C11.4251 2.5 12.3805 3.18857 12.7208 4.20943L14.593 9.82623C14.9865 11.0065 14.4521 12.2965 13.3394 12.8529L11.6437 13.7007C12.7519 15.6365 14.3635 17.2481 16.2993 18.3563L17.1471 16.6606C17.7035 15.5479 18.9935 15.0135 20.1738 15.407L25.7906 17.2792C26.8114 17.6195 27.5 18.5749 27.5 19.6509V23.75C27.5 25.8211 25.8211 27.5 23.75 27.5H22.5C11.4543 27.5 2.5 18.5457 2.5 7.5V6.25ZM6.25 5C5.55964 5 5 5.55964 5 6.25V7.5C5 17.165 12.835 25 22.5 25H23.75C24.4404 25 25 24.4404 25 23.75V19.6509L19.3832 17.7787L17.9724 20.6003C17.6724 21.2003 16.9522 21.4565 16.3406 21.1808C13.0068 19.6777 10.3223 16.9932 8.81923 13.6594C8.54348 13.0478 8.79969 12.3276 9.39974 12.0276L12.2213 10.6168L10.3491 5H6.25Z" fill="white"/>
</svg>
